This is from the PBS airing on 9-9-2012.							

												

												

The extras are in separate files.								

												

												

Enjoy and please share.										

												

												

												

										

TTLTTLTTLTTLTTLTTLTTLTTLTTLTTLTTLTTLTTLTTLTTLTTLTTL						

												

												

												

												

										

Wallander_Series III_An_Event_In_Autumn_(Masterpiece Mystery)_720p.HDTV.x264_TTL.mkv
Format                           : Matroska
File size                        : 1.69 GiB
Duration                         : 1h 19mn
Overall bit rate                 : 3 017 Kbps
Writing application              : HandBrake 0.9.5
Writing library                  : libmkv 0.6.4.1

Video
ID                               : 1
Format                           : AVC
Format/Info                      : Advanced Video Codec
Format profile                   : High@L3.1
Format settings, CABAC           : Yes
Format settings, ReFrames        : 4 frames
Muxing mode                      : Container profile=Unknown@3.1
Codec ID                         : V_MPEG4/ISO/AVC
Duration                         : 1h 19mn
Bit rate                         : 2 733 Kbps
Nominal bit rate                 : 2 787 Kbps
Width                            : 1 280 pixels
Height                           : 720 pixels
Display aspect ratio             : 16:9
Frame rate mode                  : Variable
Frame rate                       : 29.970 fps
Resolution                       : 8 bits
Colorimetry                      : 4:2:0
Scan type                        : Progressive
Bits/(Pixel*Frame)               : 0.099
Stream size                      : 1.53 GiB (90%)
Writing library                  : x264 core 112

Audio
ID                               : 2
Format                           : AC-3
Format/Info                      : Audio Coding 3
Codec ID                         : A_AC3
Duration                         : 1h 19mn
Bit rate mode                    : Constant
Bit rate                         : 224 Kbps
Channel(s)                       : 2 channels
Channel positions                : L R
Sampling rate                    : 48.0 KHz
Stream size                      : 128 MiB (7%)

												

												

									